<svg width="6103" height="605" viewBox="0 0 6103 605" fill="none" xmlns="http://www.w3.org/2000/svg">
<g filter="url(#filter0_d_693_4376)">
<path d="M1352.26 438H1311.78V396.097H1306.8C1303.73 401.068 1299.35 407.342 1293.66 414.918C1287.98 422.375 1279.87 429.063 1269.34 434.981C1258.8 440.782 1244.78 443.682 1227.26 443.682C1204.53 443.682 1184.47 437.941 1167.07 426.459C1149.67 414.859 1136.05 398.523 1126.23 377.453C1116.4 356.265 1111.49 331.229 1111.49 302.347C1111.49 273.701 1116.4 248.843 1126.23 227.772C1136.05 206.703 1149.73 190.426 1167.24 178.944C1184.76 167.462 1205 161.722 1227.97 161.722C1245.72 161.722 1259.75 164.681 1270.05 170.6C1280.47 176.4 1288.4 183.028 1293.84 190.485C1299.41 197.824 1303.73 203.862 1306.8 208.597H1310.35V74.3633H1352.26V438ZM2661.74 161.722C2675.95 161.722 2689.97 164.089 2703.82 168.824C2717.67 173.559 2730.28 181.253 2741.64 191.906C2753.01 202.441 2762.06 216.409 2768.81 233.81C2775.56 251.21 2778.93 272.635 2778.93 298.085V315.841H2580.87C2581.47 333.985 2584.99 349.551 2591.43 362.538C2598.65 376.743 2608.65 387.574 2621.44 395.031C2634.22 402.37 2649.08 406.04 2666 406.04C2677.01 406.04 2686.96 404.5 2695.83 401.423C2704.83 398.227 2712.58 393.492 2719.09 387.219C2725.6 380.827 2730.64 372.895 2734.19 363.426L2774.67 374.79C2770.41 388.521 2763.25 400.595 2753.18 411.012C2743.12 421.31 2730.69 429.359 2715.9 435.159C2701.1 440.841 2684.47 443.682 2666 443.682C2639.73 443.682 2617.06 437.882 2598 426.281C2579.06 414.563 2564.44 398.227 2554.14 377.275C2543.96 356.205 2538.87 331.702 2538.87 303.767C2538.87 275.831 2543.96 251.21 2554.14 229.903C2564.44 208.478 2578.76 191.788 2597.11 179.832C2615.58 167.758 2637.12 161.722 2661.74 161.722ZM4094.19 161.722C4121.18 161.722 4142.36 167.64 4157.75 179.478C4173.26 191.315 4184.27 206.94 4190.78 226.353L4153.13 237.006C4150.77 230.732 4147.28 224.636 4142.66 218.718C4138.16 212.681 4132.01 207.709 4124.19 203.803C4116.38 199.897 4106.38 197.943 4094.19 197.943C4077.5 197.943 4063.59 201.79 4052.46 209.484C4041.45 217.06 4035.95 226.707 4035.95 238.426C4035.95 248.842 4039.74 257.07 4047.31 263.106C4054.89 269.143 4066.72 274.175 4082.82 278.199L4123.31 288.142C4147.69 294.06 4165.86 303.116 4177.82 315.309C4189.77 327.382 4195.75 342.948 4195.75 362.006C4195.75 377.631 4191.25 391.599 4182.25 403.909C4173.38 416.22 4160.95 425.926 4144.97 433.028C4128.99 440.131 4110.4 443.682 4089.21 443.682C4061.4 443.682 4038.37 437.645 4020.15 425.571C4001.92 413.497 3990.37 395.86 3985.52 372.659L4025.29 362.716C4029.08 377.394 4036.24 388.402 4046.78 395.741C4057.43 403.08 4071.34 406.75 4088.5 406.75C4108.04 406.75 4123.54 402.607 4135.02 394.321C4146.62 385.917 4152.42 375.855 4152.42 364.137C4152.42 354.667 4149.11 346.736 4142.48 340.344C4135.85 333.833 4125.67 328.98 4111.94 325.784L4066.49 315.131C4041.51 309.212 4023.16 300.038 4011.45 287.609C3999.84 275.062 3994.04 259.378 3994.04 240.557C3994.04 225.168 3998.36 211.556 4007.01 199.719C4015.77 187.882 4027.66 178.59 4042.7 171.843C4057.85 165.096 4075.01 161.722 4094.19 161.722ZM4728.33 161.722C4752.95 161.722 4774.5 167.581 4792.96 179.3C4811.55 191.019 4825.99 207.472 4836.29 228.66C4846.7 249.849 4851.91 274.648 4851.91 303.057C4851.91 331.229 4846.7 355.851 4836.29 376.921C4825.99 397.991 4811.55 414.385 4792.96 426.104C4774.5 437.822 4752.95 443.682 4728.33 443.682C4703.71 443.682 4682.11 437.822 4663.52 426.104C4645.06 414.385 4630.62 397.991 4620.2 376.921C4609.9 355.851 4604.75 331.229 4604.75 303.057C4604.75 274.648 4609.9 249.849 4620.2 228.66C4630.62 207.472 4645.06 191.018 4663.52 179.3C4682.11 167.581 4703.71 161.722 4728.33 161.722ZM5640.53 161.722C5654.74 161.722 5668.76 164.089 5682.61 168.824C5696.46 173.559 5709.07 181.253 5720.43 191.906C5731.8 202.441 5740.85 216.409 5747.6 233.81C5754.35 251.21 5757.72 272.635 5757.72 298.085V315.841H5559.66C5560.26 333.985 5563.78 349.551 5570.22 362.538C5577.44 376.743 5587.44 387.574 5600.23 395.031C5613.01 402.37 5627.87 406.04 5644.79 406.04C5655.8 406.04 5665.75 404.5 5674.62 401.423C5683.62 398.227 5691.37 393.492 5697.88 387.219C5704.39 380.827 5709.42 372.895 5712.98 363.426L5753.46 374.79C5749.2 388.521 5742.04 400.595 5731.97 411.012C5721.91 421.31 5709.48 429.359 5694.69 435.159C5679.89 440.841 5663.26 443.682 5644.79 443.682C5618.52 443.682 5595.85 437.882 5576.79 426.281C5557.85 414.563 5543.23 398.227 5532.93 377.275C5522.75 356.205 5517.66 331.702 5517.66 303.767C5517.66 275.831 5522.75 251.21 5532.93 229.903C5543.23 208.478 5557.55 191.788 5575.9 179.832C5594.37 167.758 5615.91 161.722 5640.53 161.722ZM3315.29 69.3916C3333.63 69.3916 3350.86 72.0552 3366.96 77.3818C3383.17 82.7085 3397.79 90.5212 3410.81 100.819C3423.83 110.999 3434.72 123.428 3443.48 138.106C3452.24 152.666 3458.28 169.297 3461.59 188H3417.56C3414.96 175.334 3410.4 164.207 3403.89 154.619C3397.5 145.031 3389.68 136.982 3380.45 130.472C3371.34 123.843 3361.21 118.871 3350.09 115.557C3338.96 112.242 3327.36 110.585 3315.29 110.585C3293.27 110.585 3273.32 116.149 3255.45 127.275C3237.69 138.402 3223.55 154.797 3213.01 176.459C3202.6 198.121 3197.39 224.695 3197.39 256.182C3197.39 287.668 3202.6 314.243 3213.01 335.905C3223.55 357.567 3237.69 373.961 3255.45 385.088C3273.32 396.215 3293.27 401.778 3315.29 401.778C3327.36 401.778 3338.96 400.121 3350.09 396.807C3361.21 393.492 3371.34 388.58 3380.45 382.069C3389.68 375.441 3397.5 367.332 3403.89 357.744C3410.4 348.038 3414.96 336.911 3417.56 324.363H3461.59C3458.28 342.947 3452.24 359.579 3443.48 374.257C3434.72 388.935 3423.83 401.423 3410.81 411.722C3397.79 421.902 3383.17 429.655 3366.96 434.981C3350.86 440.308 3333.63 442.972 3315.29 442.972C3284.27 442.972 3256.69 435.396 3232.55 420.244C3208.4 405.093 3189.4 383.549 3175.55 355.613C3161.7 327.678 3154.78 294.534 3154.78 256.182C3154.78 217.829 3161.7 184.686 3175.55 156.75C3189.4 128.814 3208.4 107.271 3232.55 92.1191C3256.69 76.9677 3284.27 69.3916 3315.29 69.3916ZM3658.97 335.728C3658.97 355.614 3664.54 371.475 3675.66 383.312C3686.91 395.15 3701.23 401.068 3718.63 401.068C3729.05 401.068 3739.64 398.405 3750.41 393.078C3761.3 387.751 3770.42 379.584 3777.76 368.575C3785.21 357.567 3788.94 343.54 3788.94 326.494V165.272H3830.85V438H3788.94V391.835H3786.1C3779.71 405.684 3769.77 417.463 3756.27 427.169C3742.78 436.757 3725.73 441.551 3705.14 441.551C3688.09 441.551 3672.94 437.823 3659.68 430.365C3646.42 422.79 3636.01 411.426 3628.43 396.274C3620.86 381.005 3617.07 361.769 3617.07 338.568V165.272H3658.97V335.728ZM4409.2 165.272H4467.43V200.784H4409.2V359.875C4409.2 371.712 4410.91 380.59 4414.34 386.509C4417.9 392.309 4422.39 396.215 4427.84 398.228C4433.4 400.121 4439.26 401.068 4445.42 401.068C4450.03 401.068 4453.82 400.832 4456.78 400.358C4459.74 399.767 4462.11 399.293 4463.88 398.938L4472.41 436.579C4469.56 437.644 4465.6 438.71 4460.51 439.775C4455.42 440.959 4448.97 441.551 4441.16 441.551C4429.32 441.551 4417.72 439.006 4406.35 433.916C4395.11 428.826 4385.76 421.073 4378.3 410.656C4370.96 400.24 4367.29 387.1 4367.29 371.238V200.784H4326.1V165.272H4367.29V99.9316H4409.2V165.272ZM180.137 376.21H184.397L307.978 74.3633H360.534V438H319.341V161.722H315.79L202.153 438H162.381L48.7441 161.722H45.1934V438H4V74.3633H56.5566L180.137 376.21ZM575.046 438H533.143V165.272H575.046V438ZM865.374 161.722C883.84 161.722 899.998 165.509 913.848 173.085C927.697 180.542 938.468 191.906 946.162 207.176C953.856 222.327 957.704 241.504 957.704 264.704V438H915.801V267.546C915.801 246.121 910.237 229.43 899.11 217.475C887.984 205.401 872.713 199.363 853.301 199.363C839.925 199.363 827.969 202.263 817.434 208.063C807.017 213.864 798.791 222.327 792.754 233.454C786.717 244.581 783.698 258.076 783.698 273.938V438H741.795V165.272H782.277V207.887H785.829C792.221 194.037 801.927 182.91 814.948 174.506C827.969 165.983 844.778 161.722 865.374 161.722ZM2013.97 113.426H1899.62V438H1855.59V113.426H1741.24V74.3633H2013.97V113.426ZM2208.15 207.887H2211.7C2218.09 193.801 2227.68 182.614 2240.47 174.328C2253.37 165.924 2270.53 161.722 2291.96 161.722C2310.54 161.722 2326.82 165.45 2340.79 172.907C2354.75 180.246 2365.59 191.551 2373.28 206.821C2381.09 221.973 2385 241.267 2385 264.704V438H2343.09V267.546C2343.09 245.884 2337.47 229.134 2326.23 217.297C2315.1 205.341 2299.65 199.363 2279.88 199.363C2266.15 199.363 2253.84 202.263 2242.95 208.063C2232.18 213.864 2223.66 222.327 2217.38 233.454C2211.23 244.581 2208.15 258.076 2208.15 273.938V438H2166.25V74.3633H2208.15V207.887ZM5280.73 161.722C5305.12 161.722 5325.06 169.356 5340.57 184.626C5356.08 199.777 5363.83 223.393 5363.83 255.472V438H5321.93V255.472C5321.93 235.349 5316.42 220.966 5305.42 212.325C5294.41 203.684 5281.44 199.363 5266.53 199.363C5247.35 199.363 5232.5 205.164 5221.96 216.765C5211.43 228.247 5206.16 242.806 5206.16 260.443V438H5163.55V251.21C5163.55 235.704 5158.52 223.216 5148.46 213.746C5138.39 204.158 5125.43 199.363 5109.57 199.363C5098.68 199.363 5088.5 202.263 5079.03 208.063C5069.68 213.864 5062.1 221.914 5056.3 232.212C5050.62 242.392 5047.78 254.17 5047.78 267.546V438H5005.88V165.272H5046.36V207.887H5049.91C5055.59 193.327 5064.77 182.022 5077.43 173.973C5090.1 165.805 5105.31 161.722 5123.06 161.722C5141.06 161.722 5156.03 165.805 5167.99 173.973C5180.06 182.022 5189.47 193.327 5196.22 207.887H5199.06C5206.04 193.801 5216.52 182.614 5230.49 174.328C5244.45 165.924 5261.2 161.722 5280.73 161.722ZM6025.81 161.012C6028.89 161.012 6032.73 161.07 6037.35 161.188C6041.97 161.307 6045.46 161.485 6047.83 161.722V204.335C6046.41 203.98 6043.15 203.448 6038.06 202.737C6033.09 201.909 6027.82 201.494 6022.26 201.494C6009 201.494 5997.16 204.276 5986.75 209.84C5976.45 215.285 5968.28 222.86 5962.24 232.566C5956.33 242.154 5953.37 253.104 5953.37 265.415V438H5911.46V165.272H5951.95V206.466H5954.79C5959.76 192.972 5968.75 182.023 5981.78 173.618C5994.8 165.214 6009.47 161.012 6025.81 161.012ZM1232.94 199.363C1215.18 199.363 1200.39 203.921 1188.55 213.035C1176.83 222.031 1168.01 234.283 1162.09 249.79C1156.29 265.178 1153.39 282.461 1153.39 301.637C1153.39 321.049 1156.35 338.686 1162.27 354.548C1168.31 370.291 1177.19 382.839 1188.91 392.19C1200.74 401.423 1215.42 406.04 1232.94 406.04C1249.75 406.04 1263.95 401.66 1275.55 392.9C1287.15 384.023 1295.97 371.771 1302.01 356.146C1308.05 340.403 1311.06 322.233 1311.06 301.637C1311.06 281.277 1308.11 263.461 1302.19 248.191C1296.27 232.803 1287.51 220.848 1275.91 212.325C1264.31 203.684 1249.98 199.363 1232.94 199.363ZM4728.33 199.363C4709.63 199.363 4694.24 204.217 4682.17 213.923C4670.09 223.629 4661.16 236.354 4655.36 252.098C4649.56 267.841 4646.66 284.828 4646.66 303.057C4646.66 321.286 4649.56 338.213 4655.36 353.838C4661.16 369.463 4670.09 382.069 4682.17 391.657C4694.24 401.245 4709.63 406.04 4728.33 406.04C4747.03 406.04 4762.42 401.245 4774.5 391.657C4786.57 382.069 4795.51 369.463 4801.31 353.838C4807.11 338.213 4810.01 321.286 4810.01 303.057C4810.01 284.828 4807.11 267.841 4801.31 252.098C4795.51 236.354 4786.57 223.629 4774.5 213.923C4762.42 204.217 4747.03 199.363 4728.33 199.363ZM5640.53 199.363C5623.84 199.363 5609.4 203.507 5597.21 211.793C5585.13 219.961 5575.84 230.614 5569.33 243.753C5563.75 255.013 5560.57 266.968 5559.77 279.619H5715.11C5715.11 264.231 5712.03 250.5 5705.87 238.426C5699.84 226.352 5691.2 216.824 5679.95 209.84C5668.82 202.856 5655.68 199.363 5640.53 199.363ZM2661.74 199.363C2645.05 199.363 2630.61 203.507 2618.42 211.793C2606.35 219.961 2597.05 230.614 2590.54 243.753C2584.96 255.013 2581.78 266.968 2580.98 279.619H2736.32C2736.32 264.231 2733.24 250.5 2727.08 238.426C2721.05 226.352 2712.41 216.824 2701.16 209.84C2690.03 202.856 2676.89 199.363 2661.74 199.363ZM554.449 63C562.617 63 569.6 65.7816 575.4 71.3447C581.319 76.9082 584.278 83.5967 584.278 91.4092C584.278 99.2216 581.319 105.909 575.4 111.473C569.6 117.036 562.617 119.818 554.449 119.818C546.282 119.818 539.239 117.036 533.32 111.473C527.52 105.909 524.619 99.2216 524.619 91.4092C524.619 83.5967 527.52 76.9082 533.32 71.3447C539.239 65.7816 546.282 63 554.449 63Z" fill="#1A2745"/>
</g>
<g opacity="0.16" filter="url(#filter1_d_693_4376)">
<path d="M3504.61 234H3460.58C3457.97 221.334 3453.42 210.207 3446.91 200.619C3440.51 191.031 3432.7 182.982 3423.47 176.472C3414.35 169.843 3404.23 164.871 3393.11 161.557C3381.98 158.242 3370.38 156.585 3358.31 156.585C3336.29 156.585 3316.34 162.149 3298.47 173.276C3280.71 184.402 3266.57 200.797 3256.03 222.459C3245.62 244.121 3240.41 270.695 3240.41 302.182C3240.41 333.669 3245.62 360.243 3256.03 381.905C3266.57 403.567 3280.71 419.961 3298.47 431.088C3316.34 442.215 3336.29 447.778 3358.31 447.778C3370.38 447.778 3381.98 446.121 3393.11 442.807C3404.23 439.492 3414.35 434.58 3423.47 428.07C3432.7 421.441 3440.51 413.332 3446.91 403.744C3453.42 394.038 3457.97 382.911 3460.58 370.364H3504.61C3501.3 388.948 3495.26 405.579 3486.5 420.257C3477.74 434.935 3466.85 447.423 3453.83 457.722C3440.81 467.902 3426.19 475.655 3409.97 480.982C3393.88 486.308 3376.65 488.972 3358.31 488.972C3327.29 488.972 3299.71 481.396 3275.56 466.244C3251.42 451.093 3232.42 429.549 3218.57 401.614C3204.72 373.678 3197.79 340.534 3197.79 302.182C3197.79 263.83 3204.72 230.686 3218.57 202.75C3232.42 174.814 3251.42 153.271 3275.56 138.119C3299.71 122.968 3327.29 115.392 3358.31 115.392C3376.65 115.392 3393.88 118.055 3409.97 123.382C3426.19 128.709 3440.81 136.521 3453.83 146.82C3466.85 157 3477.74 169.428 3486.5 184.107C3495.26 198.666 3501.3 215.297 3504.61 234ZM3831.96 372.494V211.273H3873.87V484H3831.96V437.835H3829.12C3822.73 451.685 3812.79 463.463 3799.29 473.169C3785.8 482.757 3768.75 487.551 3748.15 487.551C3731.11 487.551 3715.96 483.822 3702.7 476.365C3689.44 468.789 3679.03 457.426 3671.45 442.274C3663.87 427.004 3660.09 407.769 3660.09 384.568V211.273H3701.99V381.727C3701.99 401.614 3707.55 417.475 3718.68 429.312C3729.93 441.15 3744.25 447.068 3761.65 447.068C3772.07 447.068 3782.66 444.405 3793.43 439.078C3804.32 433.751 3813.44 425.584 3820.78 414.575C3828.23 403.567 3831.96 389.54 3831.96 372.494ZM4233.8 272.352L4196.15 283.006C4193.79 276.732 4190.29 270.636 4185.68 264.717C4181.18 258.68 4175.02 253.709 4167.21 249.803C4159.4 245.896 4149.4 243.943 4137.2 243.943C4120.51 243.943 4106.61 247.79 4095.48 255.484C4084.47 263.06 4078.97 272.707 4078.97 284.426C4078.97 294.843 4082.75 303.07 4090.33 309.107C4097.91 315.143 4109.74 320.174 4125.84 324.199L4166.32 334.142C4190.71 340.061 4208.88 349.116 4220.83 361.308C4232.79 373.382 4238.77 388.948 4238.77 408.006C4238.77 423.631 4234.27 437.598 4225.27 449.909C4216.4 462.22 4203.97 471.926 4187.99 479.028C4172.01 486.131 4153.42 489.682 4132.23 489.682C4104.42 489.682 4081.39 483.645 4063.16 471.571C4044.93 459.497 4033.39 441.86 4028.54 418.659L4068.31 408.716C4072.1 423.394 4079.26 434.402 4089.8 441.741C4100.45 449.08 4114.36 452.75 4131.52 452.75C4151.05 452.75 4166.56 448.607 4178.04 440.321C4189.64 431.917 4195.44 421.855 4195.44 410.136C4195.44 400.667 4192.13 392.736 4185.5 386.344C4178.87 379.833 4168.69 374.98 4154.96 371.784L4109.51 361.131C4084.53 355.212 4066.18 346.038 4054.46 333.609C4042.86 321.062 4037.06 305.378 4037.06 286.557C4037.06 271.169 4041.38 257.556 4050.02 245.719C4058.78 233.882 4070.68 224.589 4085.71 217.842C4100.86 211.095 4118.03 207.722 4137.2 207.722C4164.19 207.722 4185.38 213.64 4200.77 225.477C4216.28 237.314 4227.29 252.939 4233.8 272.352ZM4510.45 211.273V246.784H4369.12V211.273H4510.45ZM4410.31 145.932H4452.21V405.875C4452.21 417.712 4453.93 426.59 4457.36 432.509C4460.91 438.309 4465.41 442.215 4470.86 444.227C4476.42 446.121 4482.28 447.068 4488.44 447.068C4493.05 447.068 4496.84 446.831 4499.8 446.358C4502.76 445.766 4505.13 445.293 4506.9 444.938L4515.42 482.58C4512.58 483.645 4508.62 484.71 4503.53 485.776C4498.44 486.959 4491.99 487.551 4484.17 487.551C4472.34 487.551 4460.74 485.006 4449.37 479.916C4438.13 474.826 4428.78 467.073 4421.32 456.656C4413.98 446.24 4410.31 433.1 4410.31 417.239V145.932ZM4771.35 489.682C4746.73 489.682 4725.13 483.822 4706.54 472.104C4688.08 460.385 4673.64 443.991 4663.22 422.92C4652.92 401.85 4647.77 377.229 4647.77 349.057C4647.77 320.648 4652.92 295.849 4663.22 274.661C4673.64 253.472 4688.08 237.018 4706.54 225.3C4725.13 213.581 4746.73 207.722 4771.35 207.722C4795.97 207.722 4817.52 213.581 4835.98 225.3C4854.57 237.018 4869.01 253.472 4879.31 274.661C4889.72 295.849 4894.93 320.648 4894.93 349.057C4894.93 377.229 4889.72 401.85 4879.31 422.92C4869.01 443.991 4854.57 460.385 4835.98 472.104C4817.52 483.822 4795.97 489.682 4771.35 489.682ZM4771.35 452.04C4790.05 452.04 4805.44 447.246 4817.52 437.658C4829.59 428.07 4838.53 415.463 4844.33 399.838C4850.13 384.213 4853.03 367.286 4853.03 349.057C4853.03 330.828 4850.13 313.841 4844.33 298.098C4838.53 282.355 4829.59 269.63 4817.52 259.923C4805.44 250.217 4790.05 245.364 4771.35 245.364C4752.65 245.364 4737.26 250.217 4725.19 259.923C4713.11 269.63 4704.18 282.355 4698.38 298.098C4692.57 313.841 4689.67 330.828 4689.67 349.057C4689.67 367.286 4692.57 384.213 4698.38 399.838C4704.18 415.463 4713.11 428.07 4725.19 437.658C4737.26 447.246 4752.65 452.04 4771.35 452.04ZM5048.9 484V211.273H5089.38V253.886H5092.93C5098.61 239.327 5107.78 228.022 5120.45 219.973C5133.12 211.805 5148.33 207.722 5166.08 207.722C5184.08 207.722 5199.05 211.805 5211 219.973C5223.08 228.022 5232.49 239.327 5239.24 253.886H5242.08C5249.06 239.8 5259.54 228.614 5273.5 220.328C5287.47 211.924 5304.22 207.722 5323.75 207.722C5348.14 207.722 5368.08 215.357 5383.59 230.626C5399.1 245.778 5406.85 269.393 5406.85 301.472V484H5364.95V301.472C5364.95 281.348 5359.44 266.966 5348.43 258.325C5337.43 249.684 5324.46 245.364 5309.55 245.364C5290.37 245.364 5275.52 251.164 5264.98 262.764C5254.45 274.246 5249.18 288.806 5249.18 306.443V484H5206.57V297.21C5206.57 281.704 5201.53 269.215 5191.47 259.746C5181.41 250.158 5168.45 245.364 5152.59 245.364C5141.7 245.364 5131.52 248.264 5122.05 254.064C5112.7 259.864 5105.12 267.913 5099.32 278.212C5093.64 288.392 5090.8 300.17 5090.8 313.545V484H5048.9ZM5687.81 489.682C5661.53 489.682 5638.87 483.882 5619.81 472.281C5600.87 460.562 5586.25 444.227 5575.95 423.276C5565.77 402.205 5560.68 377.703 5560.68 349.767C5560.68 321.831 5565.77 297.21 5575.95 275.903C5586.25 254.478 5600.57 237.788 5618.92 225.832C5637.39 213.759 5658.93 207.722 5683.55 207.722C5697.76 207.722 5711.78 210.089 5725.63 214.824C5739.48 219.559 5752.09 227.253 5763.45 237.906C5774.81 248.441 5783.87 262.409 5790.62 279.81C5797.36 297.21 5800.74 318.635 5800.74 344.085V361.841H5590.51V325.619H5758.12C5758.12 310.231 5755.05 296.5 5748.89 284.426C5742.85 272.352 5734.21 262.823 5722.97 255.839C5711.84 248.856 5698.7 245.364 5683.55 245.364C5666.86 245.364 5652.42 249.507 5640.23 257.793C5628.15 265.96 5618.86 276.614 5612.35 289.753C5605.84 302.892 5602.58 316.978 5602.58 332.011V356.159C5602.58 376.756 5606.14 394.215 5613.24 408.538C5620.46 422.743 5630.46 433.574 5643.25 441.031C5656.03 448.37 5670.89 452.04 5687.81 452.04C5698.82 452.04 5708.76 450.501 5717.64 447.423C5726.64 444.227 5734.39 439.492 5740.9 433.219C5747.41 426.827 5752.44 418.896 5755.99 409.426L5796.48 420.79C5792.22 434.521 5785.05 446.595 5774.99 457.011C5764.93 467.31 5752.5 475.359 5737.71 481.159C5722.91 486.841 5706.28 489.682 5687.81 489.682ZM5954.48 484V211.273H5994.96V252.466H5997.81C6002.78 238.972 6011.77 228.022 6024.79 219.618C6037.81 211.214 6052.49 207.011 6068.83 207.011C6071.91 207.011 6075.75 207.071 6080.37 207.189C6084.99 207.307 6088.48 207.485 6090.84 207.722V250.335C6089.42 249.98 6086.17 249.447 6081.08 248.737C6076.11 247.909 6070.84 247.494 6065.28 247.494C6052.02 247.494 6040.18 250.276 6029.77 255.839C6019.47 261.285 6011.3 268.86 6005.26 278.567C5999.34 288.155 5996.38 299.104 5996.38 311.415V484H5954.48Z" fill="#4F7C82"/>
</g>
<defs>
<filter id="filter0_d_693_4376" x="0" y="63" width="6051.83" height="388.682" filterUnits="userSpaceOnUse" color-interpolation-filters="sRGB">
<feFlood flood-opacity="0" result="BackgroundImageFix"/>
<feColorMatrix in="SourceAlpha" type="matrix" values="0 0 0 0 0 0 0 0 0 0 0 0 0 0 0 0 0 0 127 0" result="hardAlpha"/>
<feOffset dy="4"/>
<feGaussianBlur stdDeviation="2"/>
<feComposite in2="hardAlpha" operator="out"/>
<feColorMatrix type="matrix" values="0 0 0 0 0.472262 0 0 0 0 0.444972 0 0 0 0 0.444972 0 0 0 0.25 0"/>
<feBlend mode="normal" in2="BackgroundImageFix" result="effect1_dropShadow_693_4376"/>
<feBlend mode="normal" in="SourceGraphic" in2="effect1_dropShadow_693_4376" result="shape"/>
</filter>
<filter id="filter1_d_693_4376" x="3193.79" y="115.392" width="2901.05" height="382.29" filterUnits="userSpaceOnUse" color-interpolation-filters="sRGB">
<feFlood flood-opacity="0" result="BackgroundImageFix"/>
<feColorMatrix in="SourceAlpha" type="matrix" values="0 0 0 0 0 0 0 0 0 0 0 0 0 0 0 0 0 0 127 0" result="hardAlpha"/>
<feOffset dy="4"/>
<feGaussianBlur stdDeviation="2"/>
<feComposite in2="hardAlpha" operator="out"/>
<feColorMatrix type="matrix" values="0 0 0 0 0.472262 0 0 0 0 0.444972 0 0 0 0 0.444972 0 0 0 0.25 0"/>
<feBlend mode="normal" in2="BackgroundImageFix" result="effect1_dropShadow_693_4376"/>
<feBlend mode="normal" in="SourceGraphic" in2="effect1_dropShadow_693_4376" result="shape"/>
</filter>
</defs>
</svg>
